<svg id="Logo" xmlns="http://www.w3.org/2000/svg" width="111.48043mm" height="28.69932mm" viewBox="0 0 316.00752 81.35241">
  <defs>
    <style>
      .cls-1 {
        fill: #003a40;
      }

      .cls-2 {
        fill: #f1c400;
      }

      .cls-3 {
        fill: #00b2a9;
      }

      .cls-4 {
        fill: #00965e;
      }
    </style>
  </defs>
  <title>Zeichenfläche 1</title>
  <g>
    <path class="cls-1" d="M71.60239,25.05263V37.73545l12.1603-12.68282h7.69516L77.87253,38.92305,92.36035,55.88078H85.09268L74.12,42.81814l-2.51759,2.565V55.88078H65.94982V25.05263Z"/>
    <path class="cls-1" d="M104.18771,32.1779a12.7991,12.7991,0,0,1,4.37011.736,9.16112,9.16112,0,0,1,3.51527,2.25624q3.2777,3.32585,3.27707,9.21538,0,5.79591-3.27707,9.12a10.47274,10.47274,0,0,1-7.88538,3.04012,10.78714,10.78714,0,0,1-7.9801-3.04012q-3.2777-3.27721-3.27769-9.12,0-5.93752,3.27769-9.21538A10.786,10.786,0,0,1,104.18771,32.1779ZM109.7451,44.338a8.83644,8.83644,0,0,0-1.42487-5.48643A4.74625,4.74625,0,0,0,104.354,37.023a5.29211,5.29211,0,0,0-4.15644,1.8286A8.0799,8.0799,0,0,0,98.58265,44.338a8.725,8.725,0,0,0,1.44878,5.48643,4.78369,4.78369,0,0,0,3.96622,1.8286,5.2659,5.2659,0,0,0,4.13267-1.8286A8.08173,8.08173,0,0,0,109.7451,44.338Z"/>
    <path class="cls-1" d="M140.62077,37.16525a7.92136,7.92136,0,0,1,7.83771-4.98735,7.801,7.801,0,0,1,6.41252,2.80253q2.18451,2.66078,2.18513,7.41006V55.88078h-5.65257V42.39049a5.44088,5.44088,0,0,0-1.23512-3.87118,4.54343,4.54343,0,0,0-3.46745-1.30654,4.351,4.351,0,0,0-3.65751,1.94754,10.41078,10.41078,0,0,0-1.52021,5.89016V55.88078h-5.60506V42.39049a5.44088,5.44088,0,0,0-1.23512-3.87118,4.54343,4.54343,0,0,0-3.46745-1.30654,4.75484,4.75484,0,0,0-3.824,1.99506q-1.59164,1.99522-1.686,5.98519V55.88078h-5.60538V32.7953h4.89263l.61771,3.99013a7.63373,7.63373,0,0,1,7.315-4.60753,8.28783,8.28783,0,0,1,4.82151,1.32984A8.007,8.007,0,0,1,140.62077,37.16525Z"/>
    <path class="cls-1" d="M183.79881,37.16525a7.92136,7.92136,0,0,1,7.83771-4.98735,7.801,7.801,0,0,1,6.41252,2.80253q2.18451,2.66078,2.18513,7.41006V55.88078H194.5816V42.39049a5.44088,5.44088,0,0,0-1.23512-3.87118,4.54343,4.54343,0,0,0-3.46745-1.30654,4.351,4.351,0,0,0-3.65751,1.94754,10.41078,10.41078,0,0,0-1.52021,5.89016V55.88078h-5.60506V42.39049a5.44088,5.44088,0,0,0-1.23512-3.87118,4.54343,4.54343,0,0,0-3.46745-1.30654,4.75484,4.75484,0,0,0-3.824,1.99506q-1.59163,1.99522-1.686,5.98519V55.88078h-5.60538V32.7953h4.89263l.61771,3.99013a7.63373,7.63373,0,0,1,7.315-4.60753,8.28783,8.28783,0,0,1,4.82151,1.32984A8.007,8.007,0,0,1,183.79881,37.16525Z"/>
    <path class="cls-1" d="M206.02979,55.26338a3.51938,3.51938,0,0,1-1.09257-2.6603,3.67653,3.67653,0,0,1,1.09257-2.70749,3.794,3.794,0,0,1,2.80253-1.09257,3.95692,3.95692,0,0,1,2.85,1.09257,3.60082,3.60082,0,0,1,1.14008,2.70749,3.44951,3.44951,0,0,1-1.14008,2.6603,4.06,4.06,0,0,1-2.85,1.04505A3.89011,3.89011,0,0,1,206.02979,55.26338Z"/>
    <path class="cls-1" d="M229.05536,24.41147a15.15706,15.15706,0,0,1,5.65274,1.02113,12.02068,12.02068,0,0,1,4.41746,3.0162q3.89439,4.18067,3.8951,11.97039,0,7.83786-3.8951,12.11262-3.70511,3.99044-10.11771,3.99013-6.36588,0-10.0702-4.08485-3.89534-4.22739-3.8951-12.0179,0-7.8846,3.8951-12.06511Q222.59485,24.41178,229.05536,24.41147Zm8.17017,16.07883q0-5.29557-2.20873-8.17a7.64433,7.64433,0,0,0-11.94647,0q-2.23336,2.87458-2.23265,8.17,0,5.29747,2.23265,8.12281a7.72493,7.72493,0,0,0,11.94647,0Q237.22561,45.78761,237.22553,40.4903Z"/>
    <path class="cls-1" d="M253.80329,25.02887,267.3886,46.87923V25.02887h5.60507V55.857h-5.7001L253.28076,33.2464V55.857H247.6757V25.02887Z"/>
    <path class="cls-1" d="M279.881,25.02887h19.85561V29.874H285.48642v8.12281h13.34774V42.8419H285.48642v8.12249h14.25023V55.857H279.881Z"/>
  </g>
  <g>
    <path class="cls-2" d="M21.27916,40.71272a27.568,27.568,0,0,1,6.62638-17.89226c-1.46428-1.06206-2.81658-2.01364-4.13148-2.89653a33.20575,33.20575,0,0,0-7.502,20.78879,32.80277,32.80277,0,0,0,7.48319,20.46492c1.27766-.85816,2.59422-1.758,4.01477-2.7508A27.56468,27.56468,0,0,1,21.27916,40.71272Z"/>
    <path class="cls-3" d="M57.28273,38.68642c-5.05371-3.78871-9.42788-7.10495-13.28715-10.0311-4.88495-3.70361-8.99984-6.80146-12.50615-9.35667a27.80073,27.80073,0,0,0-3.58389,3.52181c3.40746,2.47145,7.4306,5.55074,13.066,9.82339,3.16976,2.40309,6.68615,5.069,10.64287,8.04558-3.9821,2.99666-7.51668,5.67775-10.70243,8.09431-5.66889,4.30018-9.71516,7.24828-13.14189,9.6431a27.89407,27.89407,0,0,0,3.75029,3.71423c3.46273-2.55033,7.50648-5.64469,12.41686-9.36939C47.81112,49.83287,52.202,46.50213,57.2831,42.691a2.5028,2.5028,0,0,0-.00037-4.00458Z"/>
    <path class="cls-4" d="M23.77406,19.92393c1.3149.88289,2.6672,1.83447,4.13148,2.89653a27.80073,27.80073,0,0,1,3.58389-3.52181c-.1188-.08656-.24076-.176-.35811-.26127-1.47475-1.01264-2.7508-2.00859-3.89919-2.76651-.33837.30639-.667.62544-.99338.94717-.66027.65973-1.27138,1.32617-1.776,1.90015C24.23155,19.38514,23.99733,19.649,23.77406,19.92393Z"/>
    <path class="cls-4" d="M27.77005,58.42684c-1.42055.99279-2.73711,1.89264-4.01477,2.7508q.60469.74813,1.24455,1.45988.20388.22448.42.45695c.64776.69161,1.31753,1.35751,2.013,1.98708.37459-.26062.76667-.54,1.15682-.81716.81373-.5984,1.66459-1.24418,2.68351-1.94093.08108-.05956.16543-.12218.24715-.18239A27.89407,27.89407,0,0,1,27.77005,58.42684Z"/>
  </g>
</svg>
